<svg width="40" height="40" viewBox="0 0 40 40" fill="none" xmlns="http://www.w3.org/2000/svg">
<path d="M19.9983 12.2949C15.7415 12.2949 12.2932 15.7449 12.2932 19.9999C12.2932 24.2566 15.7415 27.7066 19.9983 27.7066C24.2516 27.7066 27.7033 24.2566 27.7033 19.9999C27.7033 15.7449 24.2516 12.2949 19.9983 12.2949ZM19.9983 25.0066C17.2333 25.0066 14.9915 22.7649 14.9915 20.0016C14.9915 17.2366 17.2333 14.9966 19.9983 14.9966C22.7633 14.9966 25.0016 17.2366 25.0016 20.0016C25.0016 22.7649 22.7633 25.0066 19.9983 25.0066Z" fill="white"/>
<path d="M28.01 13.8084C29.0022 13.8084 29.8067 13.004 29.8067 12.0118C29.8067 11.0195 29.0022 10.2151 28.01 10.2151C27.0177 10.2151 26.2134 11.0195 26.2134 12.0118C26.2134 13.004 27.0177 13.8084 28.01 13.8084Z" fill="white"/>
<path d="M34.2216 10.185C33.4399 8.16997 31.8483 6.57663 29.8333 5.7983C28.6683 5.35997 27.4366 5.12497 26.1899 5.0983C24.5849 5.0283 24.0766 5.0083 20.0066 5.0083C15.9365 5.0083 15.4148 5.0083 13.8232 5.0983C12.5798 5.1233 11.3482 5.3583 10.1832 5.7983C8.16651 6.57663 6.57484 8.16997 5.79484 10.185C5.35651 11.3516 5.12151 12.5816 5.09651 13.8283C5.02484 15.4316 5.00317 15.94 5.00317 20.0116C5.00317 24.0816 5.00317 24.6 5.09651 26.195C5.12151 27.4416 5.35651 28.6716 5.79484 29.84C6.57651 31.8533 8.16817 33.4466 10.1848 34.2266C11.3448 34.68 12.5765 34.9366 13.8265 34.9766C15.4315 35.0466 15.9398 35.0683 20.0099 35.0683C24.0799 35.0683 24.6016 35.0683 26.1933 34.9766C27.4383 34.9516 28.6699 34.715 29.8366 34.2783C31.8516 33.4966 33.4433 31.905 34.2249 29.89C34.6633 28.7233 34.8983 27.4933 34.9233 26.2466C34.9949 24.6433 35.0166 24.135 35.0166 20.0633C35.0166 15.9917 35.0166 15.475 34.9233 13.88C34.9016 12.6166 34.6683 11.365 34.2216 10.185ZM32.1916 26.0716C32.1799 27.0316 32.0066 27.9833 31.6733 28.885C31.1649 30.1966 30.1299 31.2333 28.8199 31.7366C27.9283 32.0683 26.9883 32.2416 26.0366 32.255C24.4533 32.3283 24.0066 32.3466 19.9466 32.3466C15.8832 32.3466 15.4682 32.3466 13.8548 32.255C12.9065 32.2433 11.9632 32.0683 11.0732 31.7366C9.75817 31.235 8.71651 30.1983 8.20817 28.885C7.88151 27.995 7.70484 27.0533 7.68984 26.1033C7.61817 24.52 7.60151 24.0733 7.60151 20.0133C7.60151 15.9516 7.60151 15.5366 7.68984 13.9216C7.70151 12.9616 7.87484 12.0116 8.20817 11.11C8.71651 9.79497 9.75817 8.75997 11.0732 8.25663C11.9632 7.92663 12.9065 7.75163 13.8548 7.7383C15.4398 7.66663 15.8848 7.64663 19.9466 7.64663C24.0083 7.64663 24.4249 7.64663 26.0366 7.7383C26.9883 7.74997 27.9283 7.92497 28.8199 8.25663C30.1299 8.76163 31.1649 9.7983 31.6733 11.11C31.9999 12 32.1766 12.9416 32.1916 13.8916C32.2633 15.4767 32.2816 15.9216 32.2816 19.9833C32.2816 24.0433 32.2816 24.48 32.2099 26.0733H32.1916V26.0716Z" fill="white"/>
</svg>
